<?xml version="1.0" encoding="UTF-8" standalone="no"?>
<!-- Created with Inkscape (http://www.inkscape.org/) -->

<svg
   xmlns:dc="http://purl.org/dc/elements/1.1/"
   xmlns:cc="http://creativecommons.org/ns#"
   xmlns:rdf="http://www.w3.org/1999/02/22-rdf-syntax-ns#"
   xmlns:svg="http://www.w3.org/2000/svg"
   xmlns="http://www.w3.org/2000/svg"
   xmlns:xlink="http://www.w3.org/1999/xlink"
   xmlns:sodipodi="http://sodipodi.sourceforge.net/DTD/sodipodi-0.dtd"
   xmlns:inkscape="http://www.inkscape.org/namespaces/inkscape"
   width="29.460779mm"
   height="68.888222mm"
   viewBox="0 0 29.46078 68.888221"
   version="1.1"
   id="svg3719"
   inkscape:version="0.92.4 (5da689c313, 2019-01-14)"
   sodipodi:docname="trash2.svg">
  <defs
     id="defs3713">
    <linearGradient
       inkscape:collect="always"
       id="linearGradient112">
      <stop
         style="stop-color:#ffffff;stop-opacity:1;"
         offset="0"
         id="stop108" />
      <stop
         style="stop-color:#00ff00;stop-opacity:1"
         offset="1"
         id="stop110" />
    </linearGradient>
    <linearGradient
       inkscape:collect="always"
       xlink:href="#linearGradient112"
       id="linearGradient114"
       x1="61.185318"
       y1="121.23481"
       x2="63.308144"
       y2="155.86235"
       gradientUnits="userSpaceOnUse" />
    <linearGradient
       inkscape:collect="always"
       xlink:href="#linearGradient112"
       id="linearGradient97"
       gradientUnits="userSpaceOnUse"
       x1="61.185318"
       y1="121.23481"
       x2="63.308144"
       y2="155.86235"
       gradientTransform="matrix(3.7795276,0,0,3.7795276,-195.93273,-359.17113)" />
    <linearGradient
       inkscape:collect="always"
       xlink:href="#linearGradient112"
       id="linearGradient104"
       gradientUnits="userSpaceOnUse"
       x1="61.185318"
       y1="121.23481"
       x2="63.308144"
       y2="155.86235" />
    <linearGradient
       inkscape:collect="always"
       xlink:href="#linearGradient112"
       id="linearGradient106"
       gradientUnits="userSpaceOnUse"
       x1="61.185318"
       y1="121.23481"
       x2="63.308144"
       y2="155.86235" />
    <linearGradient
       inkscape:collect="always"
       xlink:href="#linearGradient112"
       id="linearGradient108"
       gradientUnits="userSpaceOnUse"
       x1="61.185318"
       y1="121.23481"
       x2="63.308144"
       y2="155.86235" />
  </defs>
  <sodipodi:namedview
     id="base"
     pagecolor="#ffffff"
     bordercolor="#666666"
     borderopacity="1.0"
     inkscape:pageopacity="0.0"
     inkscape:pageshadow="2"
     inkscape:zoom="0.70710678"
     inkscape:cx="170.83843"
     inkscape:cy="160.61065"
     inkscape:document-units="mm"
     inkscape:current-layer="layer4"
     showgrid="false"
     inkscape:window-width="2560"
     inkscape:window-height="1377"
     inkscape:window-x="-8"
     inkscape:window-y="-8"
     inkscape:window-maximized="1"
     fit-margin-top="0"
     fit-margin-left="0"
     fit-margin-right="0"
     fit-margin-bottom="0"
     inkscape:pagecheckerboard="true" />
  <metadata
     id="metadata3716">
    <rdf:RDF>
      <cc:Work
         rdf:about="">
        <dc:format>image/svg+xml</dc:format>
        <dc:type
           rdf:resource="http://purl.org/dc/dcmitype/StillImage" />
        <dc:title></dc:title>
      </cc:Work>
    </rdf:RDF>
  </metadata>
  <g
     inkscape:groupmode="layer"
     id="layer4"
     inkscape:label="Cans"
     style="display:inline"
     transform="translate(-3.174999,-2.8372411)">
    <g
       inkscape:groupmode="layer"
       id="layer2"
       inkscape:label="Text"
       style="display:inline"
       transform="translate(-51.840534,-95.030695)">
      <g
         aria-label="CLEAN"
         style="font-style:normal;font-weight:normal;font-size:16.3364296px;line-height:1.25;font-family:sans-serif;letter-spacing:0px;word-spacing:0px;fill:#ffffff;fill-opacity:1;stroke:none;stroke-width:0.40841073"
         id="text66" />
      <g
         aria-label="CANS"
         style="font-style:normal;font-weight:normal;font-size:16.3364296px;line-height:1.25;font-family:sans-serif;letter-spacing:0px;word-spacing:0px;fill:#ffffff;fill-opacity:1;stroke:none;stroke-width:0.40841073"
         id="text84" />
    </g>
    <g
       inkscape:groupmode="layer"
       id="layer3"
       inkscape:label="Sparkle"
       style="display:inline"
       transform="translate(-51.840534,-95.030695)" />
    <path
       style="display:inline;fill:url(#linearGradient97);fill-opacity:1;stroke-width:0.66967815"
       d="m 88.585938,240.91602 c -5.069921,-0.12085 -10.037596,2.70994 -12.611329,8.00976 -0.931906,1.91951 -1.69342,4.42166 -1.691406,5.56055 0.0097,5.46414 3.108589,10.69154 7.865235,13.27148 v -0.002 c 3.448301,1.87139 8.998741,1.77182 12.6875,-0.22656 8.402662,-4.55222 9.719082,-16.75592 2.492187,-23.10352 -2.620891,-2.30214 -5.700235,-3.43726 -8.742187,-3.50976 z m -0.421876,9.27343 c 0.893517,0 1.786061,0.44316 2.884766,1.33008 2.111467,1.70434 2.383036,5.25103 0.533203,6.96875 -1.808938,1.67981 -5.755839,1.46376 -7.017578,-0.38476 -1.578807,-2.313 -1.291582,-4.96612 0.712891,-6.58399 1.098703,-0.88692 1.993202,-1.33008 2.886718,-1.33008 z"
       transform="scale(0.26458333)"
       id="path93"
       inkscape:connector-curvature="0" />
    <path
       style="display:inline;fill:url(#linearGradient104);fill-opacity:1;stroke-width:0.17718568"
       d="m 59.562863,164.49299 c -0.117506,-1.24441 -0.893184,-9.18764 -1.723727,-17.65165 -0.830542,-8.46409 -1.51007,-15.41776 -1.51007,-15.45264 0,-0.0362 -0.295534,-0.0631 -0.65677,-0.0631 h -0.656762 v -0.93899 -0.93898 l 11.447393,-0.0801 c 10.485568,-0.0732 11.474337,-0.10737 11.768137,-0.40889 0.302576,-0.31019 0.302134,-0.34841 -0.0073,-0.66615 -0.30362,-0.31178 -1.143041,-0.34156 -11.205196,-0.39748 -6.426437,-0.0362 -10.876972,-0.13316 -10.876972,-0.23735 0,-0.0973 0.358858,-0.55986 0.797493,-1.02827 0.597366,-0.63802 1.068278,-0.93222 1.87648,-1.17239 0.759784,-0.2257 1.07933,-0.41632 1.080202,-0.64394 0.0015,-0.45991 0.64948,-1.40872 1.160253,-1.69954 0.286603,-0.16334 1.23953,-0.24944 2.811613,-0.25345 2.279881,-0.007 2.401582,0.0128 2.946647,0.48409 0.312714,0.27035 0.670569,0.78043 0.795269,1.13431 l 0.226741,0.64335 6.687492,0.0701 c 7.493382,0.0785 7.026665,-0.007 8.553098,1.58659 1.133555,1.18431 1.399429,1.66465 1.399429,2.5282 0,0.91527 -0.430413,1.39875 -3.406896,3.8272 -0.996534,0.81301 -1.860009,1.60689 -1.918833,1.7642 -0.11672,0.31218 -1.707226,15.60639 -2.081515,20.01572 -0.207229,2.44112 -0.190131,2.40695 -1.205373,2.40695 -2.038842,0 -3.815015,1.04556 -4.852378,2.85635 -0.452868,0.79053 -0.514431,1.09512 -0.51245,2.53517 0.0022,1.65972 0.34357,2.73674 1.174575,3.70675 0.274252,0.31983 -0.01683,0.33711 -5.804004,0.33711 h -6.092837 z"
       transform="translate(-51.840535,-95.030695)"
       id="path89"
       inkscape:connector-curvature="0" />
    <path
       style="display:inline;fill:url(#linearGradient106);fill-opacity:1;stroke-width:0.17718568"
       d="m 69.006279,134.32287 c 0.870468,-0.65925 -1.129206,-1.15658 -3.80923,-0.94747 -1.715777,0.13353 -2.294818,0.46966 -1.647542,0.95536 0.514201,0.38582 4.945388,0.37938 5.456772,-0.007 z"
       transform="translate(-51.840535,-95.030695)"
       id="path87"
       inkscape:connector-curvature="0" />
    <path
       style="display:inline;fill:url(#linearGradient108);fill-opacity:1;stroke-width:0.17718568"
       d="m 83.236835,129.75512 c 0.335042,-0.49084 0.132359,-1.03231 -0.458365,-1.2247 -0.481996,-0.15695 -0.929429,0.20759 -0.929429,0.75815 0,0.88375 0.897141,1.1854 1.387794,0.46655 z"
       transform="translate(-51.840535,-95.030695)"
       id="path85"
       inkscape:connector-curvature="0" />
    <path
       style="display:inline;fill:url(#linearGradient114);fill-opacity:1;stroke-width:0.17718568"
       d="m 65.993094,124.97065 c 0.195922,-0.32506 -0.79761,-0.57731 -2.276534,-0.57731 -1.372063,0 -2.133388,0.2084 -2.133388,0.58444 0,0.25104 4.258525,0.2442 4.409922,-0.007 z"
       transform="translate(-51.840535,-95.030695)"
       id="path83"
       inkscape:connector-curvature="0" />
  </g>
  <text
     xml:space="preserve"
     style="font-style:normal;font-weight:normal;font-size:10.58333302px;line-height:1.25;font-family:sans-serif;letter-spacing:0px;word-spacing:0px;fill:#000000;fill-opacity:1;stroke:none;stroke-width:0.26458332"
     x="40.666954"
     y="-76.957359"
     id="text3771"><tspan
       sodipodi:role="line"
       id="tspan3769"
       x="40.666954"
       y="-67.301865"
       style="stroke-width:0.26458332" /></text>
</svg>
