<?xml version="1.0" encoding="UTF-8" standalone="no"?>
<!-- Created with Inkscape (http://www.inkscape.org/) -->

<svg
   xmlns:dc="http://purl.org/dc/elements/1.1/"
   xmlns:cc="http://creativecommons.org/ns#"
   xmlns:rdf="http://www.w3.org/1999/02/22-rdf-syntax-ns#"
   xmlns:svg="http://www.w3.org/2000/svg"
   xmlns="http://www.w3.org/2000/svg"
   xmlns:sodipodi="http://sodipodi.sourceforge.net/DTD/sodipodi-0.dtd"
   xmlns:inkscape="http://www.inkscape.org/namespaces/inkscape"
   width="44.395267mm"
   height="18.149786mm"
   viewBox="0 0 44.395268 18.149786"
   version="1.1"
   id="svg3719"
   inkscape:version="0.92.4 (5da689c313, 2019-01-14)"
   sodipodi:docname="drawing.svg">
  <defs
     id="defs3713" />
  <sodipodi:namedview
     id="base"
     pagecolor="#ffffff"
     bordercolor="#666666"
     borderopacity="1.0"
     inkscape:pageopacity="0.0"
     inkscape:pageshadow="2"
     inkscape:zoom="4"
     inkscape:cx="86.295294"
     inkscape:cy="36.737545"
     inkscape:document-units="mm"
     inkscape:current-layer="layer1"
     showgrid="false"
     inkscape:window-width="1267"
     inkscape:window-height="1368"
     inkscape:window-x="194"
     inkscape:window-y="0"
     inkscape:window-maximized="0"
     fit-margin-top="0"
     fit-margin-left="0"
     fit-margin-right="0"
     fit-margin-bottom="0" />
  <metadata
     id="metadata3716">
    <rdf:RDF>
      <cc:Work
         rdf:about="">
        <dc:format>image/svg+xml</dc:format>
        <dc:type
           rdf:resource="http://purl.org/dc/dcmitype/StillImage" />
        <dc:title></dc:title>
      </cc:Work>
    </rdf:RDF>
  </metadata>
  <g
     inkscape:label="Layer 1"
     inkscape:groupmode="layer"
     id="layer1"
     style="display:inline"
     transform="translate(-51.840534,-95.030692)">
    <flowRoot
       xml:space="preserve"
       id="flowRoot3721"
       style="font-style:normal;font-weight:normal;font-size:40px;line-height:1.25;font-family:sans-serif;letter-spacing:0px;word-spacing:0px;fill:#ffffff;fill-opacity:1;stroke:none"
       transform="matrix(0.30435647,0,0,0.22408225,11.358984,20.94852)"><flowRegion
         id="flowRegion3723"
         style="fill:#ffffff"><rect
           id="rect3725"
           width="455.5788"
           height="217.1828"
           x="157.5838"
           y="324.49918"
           style="fill:#ffffff" /></flowRegion><flowPara
         id="flowPara3727"
         style="font-style:normal;font-variant:normal;font-weight:bold;font-stretch:normal;font-size:40px;font-family:sans-serif;-inkscape-font-specification:'sans-serif, Bold';font-variant-ligatures:normal;font-variant-caps:normal;font-variant-numeric:normal;font-feature-settings:normal;text-align:start;writing-mode:lr-tb;text-anchor:start;fill:#ffffff">Clean</flowPara><flowPara
         style="font-style:normal;font-variant:normal;font-weight:bold;font-stretch:normal;font-size:40px;font-family:sans-serif;-inkscape-font-specification:'sans-serif, Bold';font-variant-ligatures:normal;font-variant-caps:normal;font-variant-numeric:normal;font-feature-settings:normal;text-align:start;writing-mode:lr-tb;text-anchor:start;fill:#ffffff"
         id="flowPara3823">Cans</flowPara></flowRoot>    <text
       xml:space="preserve"
       style="font-style:normal;font-weight:normal;font-size:10.58333302px;line-height:1.25;font-family:sans-serif;letter-spacing:0px;word-spacing:0px;fill:#000000;fill-opacity:1;stroke:none;stroke-width:0.26458332"
       x="11.759859"
       y="146.52725"
       id="text3731"><tspan
         sodipodi:role="line"
         id="tspan3729"
         x="11.759859"
         y="156.18275"
         style="stroke-width:0.26458332"></tspan></text>
  </g>
  <g
     inkscape:groupmode="layer"
     id="layer2"
     inkscape:label="Layer 2"
     style="display:inline"
     transform="translate(-51.840534,-95.030692)">
    <path
       style="fill:#00ff00;stroke-width:0.04724884"
       d="m 52.970848,112.55976 c -0.02921,-0.30932 -0.222016,-2.28374 -0.428461,-4.38761 -0.206445,-2.10389 -0.375353,-3.83234 -0.375353,-3.84101 0,-0.009 -0.07346,-0.0157 -0.163251,-0.0157 h -0.163249 v -0.2334 -0.2334 l 2.845439,-0.0199 c 2.606361,-0.0182 2.852136,-0.0267 2.925165,-0.10164 0.07521,-0.0771 0.0751,-0.0866 -0.0018,-0.16558 -0.07547,-0.0775 -0.284122,-0.0849 -2.785237,-0.0988 -1.597397,-0.009 -2.703651,-0.0331 -2.703651,-0.059 0,-0.0242 0.0892,-0.13916 0.19823,-0.25559 0.148485,-0.15859 0.265538,-0.23172 0.46643,-0.29142 0.188857,-0.0561 0.268285,-0.10348 0.268502,-0.16006 3.69e-4,-0.11432 0.161439,-0.35016 0.2884,-0.42245 0.07124,-0.0406 0.308106,-0.062 0.698873,-0.063 0.566702,-0.002 0.596953,0.003 0.732438,0.12033 0.07773,0.0672 0.166681,0.19399 0.197677,0.28195 l 0.05636,0.15992 1.662287,0.0174 c 1.862604,0.0195 1.746594,-0.002 2.126014,0.39437 0.281764,0.29438 0.347851,0.41378 0.347851,0.62843 0,0.2275 -0.106986,0.34768 -0.84684,0.95131 -0.247705,0.20209 -0.462336,0.39942 -0.476958,0.43852 -0.02901,0.0776 -0.424359,3.87923 -0.517395,4.97524 -0.05151,0.60678 -0.04726,0.59829 -0.299615,0.59829 -0.506788,0 -0.948285,0.25989 -1.206139,0.70999 -0.112568,0.1965 -0.12787,0.27221 -0.127378,0.63016 5.42e-4,0.41255 0.0854,0.68026 0.29196,0.92137 0.06817,0.0795 -0.0042,0.0838 -1.442681,0.0838 h -1.514494 z m 2.347317,-7.49928 c 0.216369,-0.16387 -0.280683,-0.28749 -0.946847,-0.23551 -0.426485,0.0332 -0.570415,0.11674 -0.409524,0.23747 0.127813,0.0959 1.229258,0.0943 1.356371,-0.002 z m 3.53724,-1.13539 c 0.08328,-0.12201 0.0329,-0.2566 -0.113934,-0.30442 -0.119808,-0.039 -0.231025,0.0516 -0.231025,0.18845 0,0.21967 0.222999,0.29465 0.344959,0.11597 z m -4.286217,-1.18926 c 0.0487,-0.0808 -0.198259,-0.1435 -0.56587,-0.1435 -0.341049,0 -0.530289,0.0518 -0.530289,0.14527 0,0.0624 1.058527,0.0607 1.096159,-0.002 z"
       id="path3791"
       inkscape:connector-curvature="0" />
    <path
       style="fill:#00ff00;stroke-width:0.04404243"
       d="m 56.453892,112.90327 c -0.312828,-0.16967 -0.516514,-0.51342 -0.517154,-0.87278 -1.32e-4,-0.0749 0.04992,-0.23951 0.111208,-0.36575 0.270825,-0.55768 0.944652,-0.6997 1.404297,-0.29596 0.475288,0.41746 0.3887,1.22013 -0.163914,1.51951 -0.242597,0.13143 -0.607654,0.13799 -0.834437,0.0149 z m 0.620464,-0.60962 c 0.121657,-0.11297 0.103822,-0.3462 -0.03504,-0.45829 -0.144516,-0.11666 -0.235054,-0.11666 -0.37957,0 -0.131827,0.1064 -0.150713,0.28085 -0.04688,0.43297 0.08298,0.12157 0.342527,0.1358 0.461495,0.0253 z"
       id="path3793"
       inkscape:connector-curvature="0" />
    <path
       style="fill:#00ff00;stroke-width:0.06681738"
       d="m 62.999794,103.50659 c -0.970629,-0.18979 -1.801561,-0.65519 -2.245715,-1.25779 -0.677145,-0.91873 -0.943985,-2.265763 -0.700537,-3.536406 0.312555,-1.631339 1.308727,-2.646682 2.911628,-2.967664 0.970228,-0.194289 2.216082,-0.05475 3.17763,0.355912 l 0.430242,0.183745 7.94e-4,0.918739 c 5.29e-4,0.630457 -0.0226,0.918739 -0.07361,0.918739 -0.04089,0 -0.258887,-0.139671 -0.484426,-0.310382 -0.802113,-0.607111 -1.542941,-0.83483 -2.262923,-0.695585 -0.763894,0.147736 -1.313357,0.606005 -1.600366,1.334752 -0.212985,0.540795 -0.212985,1.80842 0,2.34921 0.191362,0.48589 0.54448,0.89137 0.971759,1.11584 0.306091,0.16081 0.415716,0.18044 1.011473,0.18108 0.809937,7.9e-4 1.096769,-0.0953 1.809583,-0.60672 0.277056,-0.19878 0.531976,-0.36141 0.566494,-0.36141 0.036,0 0.06276,0.38069 0.06276,0.89291 v 0.89291 l -0.384199,0.17183 c -0.967817,0.43285 -2.257481,0.60274 -3.190531,0.42029 z"
       id="path3797"
       inkscape:connector-curvature="0" />
    <path
       style="fill:#00ff00;stroke-width:0.06681738"
       d="m 67.977688,99.424803 v -3.975634 h 0.902036 0.902034 v 3.975634 3.975637 h -0.902034 -0.902036 z"
       id="path3799"
       inkscape:connector-curvature="0" />
    <path
       style="fill:#00ff00;stroke-width:0.06681738"
       d="m 74.05807,103.55281 c -1.86145,-0.21251 -2.873147,-1.25434 -2.873147,-2.9587 0,-1.881676 1.255429,-3.071626 3.240643,-3.071626 0.568489,0 1.24406,0.130045 1.581163,0.304368 0.800277,0.413838 1.257027,1.36384 1.258189,2.616918 l 2.64e-4,0.41761 h -2.138156 c -1.666179,0 -2.138074,0.0184 -2.137783,0.0835 0.0011,0.23266 0.163709,0.61468 0.354063,0.83148 0.295852,0.33696 0.697479,0.49773 1.343935,0.53796 0.691904,0.0431 1.180833,-0.0605 1.837613,-0.38923 0.287817,-0.14406 0.542066,-0.26192 0.564997,-0.26192 0.02294,0 0.0417,0.32943 0.0417,0.73208 v 0.73208 l -0.520591,0.16446 c -0.828027,0.26157 -1.735408,0.35434 -2.55301,0.261 z m 1.402792,-3.810623 c -7.94e-4,-0.239488 -0.14359,-0.620083 -0.304435,-0.811236 -0.321294,-0.381837 -1.285277,-0.414433 -1.737455,-0.05875 -0.197731,0.155536 -0.426218,0.601607 -0.428512,0.836576 l -0.0016,0.150339 h 1.236123 c 1.132855,0 1.236088,-0.0098 1.235747,-0.11693 z"
       id="path3801"
       inkscape:connector-curvature="0" />
    <path
       style="fill:#00ff00;stroke-width:0.06681738"
       d="m 79.523219,103.5115 c -0.818806,-0.23159 -1.32247,-0.89422 -1.32247,-1.7399 0,-1.22223 0.927873,-1.84933 2.973372,-2.00954 0.904351,-0.07084 0.968854,-0.0887 0.968854,-0.268341 0,-0.250891 -0.292394,-0.540668 -0.649682,-0.643866 -0.524317,-0.151447 -1.432536,-0.108783 -2.056424,0.0966 -0.807831,0.265935 -0.7684,0.290753 -0.7684,-0.48364 V 97.8015 l 0.41761,-0.07237 c 1.03695,-0.179705 1.532792,-0.221287 2.221677,-0.186306 1.627508,0.08264 2.376377,0.540967 2.571343,1.573723 0.03737,0.197953 0.06795,1.242813 0.06795,2.321903 v 1.962 H 83.045013 82.14298 v -0.3012 -0.30119 l -0.392094,0.26764 c -0.215652,0.1472 -0.522732,0.31373 -0.682398,0.37007 -0.41311,0.14575 -1.167058,0.1827 -1.545264,0.0757 z m 2.258959,-1.3201 0.327388,-0.1683 0.01923,-0.65577 0.01921,-0.65576 -0.515906,0.0483 c -0.710097,0.0665 -1.230551,0.21173 -1.415119,0.39476 -0.187507,0.18595 -0.252748,0.60774 -0.130331,0.8426 0.223311,0.42843 1.054627,0.52361 1.695527,0.19413 z"
       id="path3803"
       inkscape:connector-curvature="0" />
    <path
       style="fill:#00ff00;stroke-width:0.06681738"
       d="m 85.684295,100.5607 v -2.839739 h 0.902034 0.902036 v 0.23386 c 0,0.142388 0.03263,0.233862 0.08342,0.233862 0.04588,0 0.335306,-0.127788 0.64317,-0.283974 0.518488,-0.263039 0.605203,-0.285658 1.176224,-0.306793 0.744125,-0.02754 1.164847,0.119393 1.544219,0.539316 0.456026,0.504764 0.456452,0.507416 0.48251,3.008118 l 0.0235,2.25509 h -0.907441 -0.907441 l -0.0035,-0.81851 c -0.0056,-1.31733 -0.107585,-3.090372 -0.186132,-3.237137 -0.119668,-0.223604 -0.431776,-0.310311 -0.970372,-0.269576 -0.267055,0.02019 -0.596387,0.08303 -0.731851,0.139631 l -0.246298,0.10291 v 2.041342 2.04134 h -0.902036 -0.902033 z"
       id="path3821"
       inkscape:connector-curvature="0" />
  </g>
  <g
     inkscape:groupmode="layer"
     id="layer3"
     inkscape:label="Layer 3"
     style="display:inline"
     transform="translate(-51.840534,-95.030692)">
    <path
       style="display:inline;fill:#ffffff;stroke-width:0.05300734"
       d="m 53.505662,101.74146 c -0.01605,-0.0437 -0.05692,-0.16957 -0.09079,-0.27964 -0.08831,-0.28693 -0.300532,-0.51397 -0.606773,-0.64913 l -0.266234,-0.11749 0.284134,-0.12224 c 0.318062,-0.13682 0.565012,-0.42333 0.620686,-0.72011 0.03706,-0.197521 0.127741,-0.296346 0.127741,-0.13921 0,0.05431 0.05886,0.216856 0.130803,0.36123 0.132824,0.26653 0.481077,0.55344 0.671791,0.55344 0.155688,0 0.159504,0.0925 0.0054,0.13099 -0.382567,0.0955 -0.66892,0.39382 -0.781312,0.814 -0.03896,0.14565 -0.07828,0.21492 -0.09544,0.16816 z"
       id="path3843"
       inkscape:connector-curvature="0" />
    <path
       style="display:inline;fill:#ffffff;stroke-width:0.05300734"
       d="m 56.867723,101.06142 c -0.152569,-0.50036 -0.426643,-0.79194 -0.910103,-0.96822 l -0.333533,-0.121619 0.296418,-0.0988 c 0.527897,-0.175966 0.835683,-0.531082 0.999098,-1.152741 l 0.0627,-0.238534 0.06542,0.238534 c 0.163477,0.596144 0.343283,0.839899 0.780826,1.058542 0.176793,0.08835 0.358183,0.160625 0.403089,0.160625 0.127008,0 0.0092,0.07803 -0.276425,0.183283 -0.466786,0.17192 -0.706757,0.45392 -0.881495,1.03589 l -0.08754,0.29154 z"
       id="path3841"
       inkscape:connector-curvature="0" />
    <path
       style="display:inline;fill:#ffffff;stroke-width:0.05300734"
       d="m 54.774653,99.038687 c -0.166185,-0.645114 -0.538749,-1.064113 -1.111292,-1.249805 -0.375374,-0.121749 -0.393216,-0.153492 -0.130397,-0.232013 0.697631,-0.208423 1.110865,-0.659775 1.265897,-1.382675 0.03118,-0.145353 0.07448,-0.253275 0.09624,-0.239826 0.02176,0.01342 0.06822,0.150767 0.103274,0.305156 0.143834,0.633671 0.55762,1.095122 1.149221,1.281607 0.330514,0.104182 0.363917,0.167193 0.11695,0.220589 -0.537834,0.116287 -1.019066,0.555741 -1.202111,1.097763 -0.0604,0.178858 -0.109821,0.366864 -0.109821,0.417792 0,0.227152 -0.09236,0.113698 -0.177961,-0.218588 z"
       id="path3839"
       inkscape:connector-curvature="0" />
  </g>
  <text
     xml:space="preserve"
     style="font-style:normal;font-weight:normal;font-size:10.58333302px;line-height:1.25;font-family:sans-serif;letter-spacing:0px;word-spacing:0px;fill:#000000;fill-opacity:1;stroke:none;stroke-width:0.26458332"
     x="43.841953"
     y="-74.120117"
     id="text3771"><tspan
       sodipodi:role="line"
       id="tspan3769"
       x="43.841953"
       y="-64.464622"
       style="stroke-width:0.26458332" /></text>
</svg>
