<?xml version="1.0" encoding="UTF-8" standalone="no"?>
<!-- Created with Inkscape (http://www.inkscape.org/) -->

<svg
   xmlns:dc="http://purl.org/dc/elements/1.1/"
   xmlns:cc="http://creativecommons.org/ns#"
   xmlns:rdf="http://www.w3.org/1999/02/22-rdf-syntax-ns#"
   xmlns:svg="http://www.w3.org/2000/svg"
   xmlns="http://www.w3.org/2000/svg"
   xmlns:xlink="http://www.w3.org/1999/xlink"
   xmlns:sodipodi="http://sodipodi.sourceforge.net/DTD/sodipodi-0.dtd"
   xmlns:inkscape="http://www.inkscape.org/namespaces/inkscape"
   width="178.60516mm"
   height="73.017822mm"
   viewBox="0 0 178.60517 73.017822"
   version="1.1"
   id="svg3719"
   inkscape:version="0.92.4 (5da689c313, 2019-01-14)"
   sodipodi:docname="drawing2.svg">
  <defs
     id="defs3713">
    <linearGradient
       inkscape:collect="always"
       id="linearGradient112">
      <stop
         style="stop-color:#ffffff;stop-opacity:1;"
         offset="0"
         id="stop108" />
      <stop
         style="stop-color:#00ff00;stop-opacity:1"
         offset="1"
         id="stop110" />
    </linearGradient>
    <linearGradient
       inkscape:collect="always"
       id="linearGradient99">
      <stop
         style="stop-color:#ffffff;stop-opacity:1;"
         offset="0"
         id="stop95" />
      <stop
         style="stop-color:#00ff00;stop-opacity:1"
         offset="1"
         id="stop97" />
    </linearGradient>
    <linearGradient
       inkscape:collect="always"
       xlink:href="#linearGradient99"
       id="linearGradient101"
       x1="227.17017"
       y1="177.11554"
       x2="220.51971"
       y2="227.90685"
       gradientUnits="userSpaceOnUse" />
    <linearGradient
       inkscape:collect="always"
       xlink:href="#linearGradient112"
       id="linearGradient114"
       x1="61.185318"
       y1="121.23481"
       x2="63.308144"
       y2="155.86235"
       gradientUnits="userSpaceOnUse" />
  </defs>
  <sodipodi:namedview
     id="base"
     pagecolor="#ffffff"
     bordercolor="#666666"
     borderopacity="1.0"
     inkscape:pageopacity="0.0"
     inkscape:pageshadow="2"
     inkscape:zoom="1"
     inkscape:cx="341.24374"
     inkscape:cy="104.05575"
     inkscape:document-units="mm"
     inkscape:current-layer="layer3"
     showgrid="false"
     inkscape:window-width="1270"
     inkscape:window-height="946"
     inkscape:window-x="1034"
     inkscape:window-y="241"
     inkscape:window-maximized="0"
     fit-margin-top="0"
     fit-margin-left="0"
     fit-margin-right="0"
     fit-margin-bottom="0"
     inkscape:pagecheckerboard="true" />
  <metadata
     id="metadata3716">
    <rdf:RDF>
      <cc:Work
         rdf:about="">
        <dc:format>image/svg+xml</dc:format>
        <dc:type
           rdf:resource="http://purl.org/dc/dcmitype/StillImage" />
        <dc:title></dc:title>
      </cc:Work>
    </rdf:RDF>
  </metadata>
  <g
     inkscape:groupmode="layer"
     id="layer4"
     inkscape:label="Cans"
     style="display:inline">
    <g
       inkscape:groupmode="layer"
       id="layer2"
       inkscape:label="Text"
       style="display:inline"
       transform="translate(-51.840534,-95.030695)">
      <g
         aria-label="CLEAN"
         style="font-style:normal;font-weight:normal;font-size:16.3364296px;line-height:1.25;font-family:sans-serif;letter-spacing:0px;word-spacing:0px;fill:#ffffff;fill-opacity:1;stroke:none;stroke-width:0.40841073"
         id="text66" />
      <g
         aria-label="CANS"
         style="font-style:normal;font-weight:normal;font-size:16.3364296px;line-height:1.25;font-family:sans-serif;letter-spacing:0px;word-spacing:0px;fill:#ffffff;fill-opacity:1;stroke:none;stroke-width:0.40841073"
         id="text84" />
    </g>
    <g
       inkscape:groupmode="layer"
       id="layer3"
       inkscape:label="Sparkle"
       style="display:inline"
       transform="translate(-51.840534,-95.030695)">
      <path
         id="path3839"
         style="display:inline;fill:url(#linearGradient101);fill-opacity:1;stroke-width:0.21325213"
         d="m 66.290526,110.36138 c -0.668573,-2.59534 -2.167424,-4.281 -4.470802,-5.02805 -1.510155,-0.48981 -1.581936,-0.61751 -0.524596,-0.93341 2.806617,-0.83849 4.469085,-2.65432 5.092788,-5.562593 0.125445,-0.584764 0.299639,-1.018942 0.387181,-0.964835 0.08754,0.054 0.274454,0.606544 0.415478,1.227663 0.578655,2.549305 2.243343,4.405745 4.623393,5.155995 1.329682,0.41914 1.464064,0.67262 0.470498,0.88744 -2.163741,0.46783 -4.099771,2.23578 -4.836174,4.41637 -0.242992,0.71956 -0.441816,1.47592 -0.441816,1.68081 0,0.91385 -0.37157,0.45742 -0.71595,-0.87939 z m 8.420563,8.13759 c -0.613795,-2.01298 -1.716414,-3.18603 -3.661407,-3.89522 l -1.341825,-0.48928 1.19251,-0.39748 c 2.123765,-0.70793 3.362009,-2.13658 4.019439,-4.63755 l 0.252247,-0.95964 0.263188,0.95964 c 0.657679,2.39833 1.38105,3.37897 3.141317,4.25858 0.711249,0.35545 1.440993,0.64621 1.621653,0.64621 0.510961,0 0.037,0.31392 -1.112076,0.73736 -1.877913,0.69165 -2.843331,1.82615 -3.546315,4.16746 l -0.352179,1.17288 z m -13.525799,2.73584 c -0.06457,-0.17578 -0.228994,-0.68219 -0.365254,-1.12501 -0.355278,-1.15434 -1.209061,-2.06773 -2.44109,-2.61149 l -1.071077,-0.47268 1.14309,-0.49177 c 1.279586,-0.55043 2.273082,-1.70309 2.497062,-2.89704 0.149096,-0.79465 0.513911,-1.19224 0.513911,-0.56006 0,0.2185 0.236797,0.87243 0.526229,1.45324 0.534359,1.07228 1.935406,2.22654 2.702661,2.22654 0.626343,0 0.641695,0.37213 0.02173,0.52699 -1.539095,0.3842 -2.691112,1.58435 -3.143272,3.27476 -0.156742,0.58596 -0.314925,0.86465 -0.383962,0.67652 z m 142.1655,34.83914 q 0,4.21174 -3.57997,6.85364 -3.56084,2.62277 -9.687,2.62277 -3.54168,0 -6.18359,-0.61262 -2.62276,-0.63176 -4.92007,-1.58897 v -6.8345 h 0.80405 q 2.27817,1.8187 5.09238,2.79506 2.83335,0.97636 5.43696,0.97636 0.67005,0 1.76128,-0.11487 1.09122,-0.11486 1.78041,-0.38288 0.84235,-0.3446 1.37839,-0.86149 0.55518,-0.5169 0.55518,-1.53154 0,-0.93807 -0.80406,-1.60812 -0.78491,-0.6892 -2.31645,-1.05294 -1.60812,-0.38288 -3.40768,-0.70833 -1.78042,-0.3446 -3.35024,-0.86149 -3.59912,-1.1678 -5.1881,-3.15881 -1.56983,-2.01014 -1.56983,-4.9775 0,-3.98201 3.56084,-6.4899 3.57997,-2.52705 9.18924,-2.52705 2.8142,0 5.55183,0.55519 2.75677,0.53604 4.76692,1.35924 v 6.56648 h -0.78491 q -1.72299,-1.37839 -4.23088,-2.29731 -2.48876,-0.93807 -5.09238,-0.93807 -0.91892,0 -1.83784,0.13401 -0.89978,0.11486 -1.74213,0.45946 -0.74663,0.28716 -1.28267,0.88064 -0.53604,0.57432 -0.53604,1.32095 0,1.12951 0.8615,1.74213 0.86149,0.59347 3.25452,1.09122 1.56983,0.32545 3.00565,0.63176 1.45496,0.30631 3.12051,0.84235 3.27367,1.07208 4.82435,2.92907 1.56983,1.83785 1.56983,4.78606 z m -30.13305,8.95951 h -7.08337 L 154.0352,145.46804 v 19.56542 h -6.73878 v -28.50579 h 8.78721 l 10.39533,16.33005 v -16.33005 h 6.73878 z m -30.05648,0 h -7.60027 l -1.97186,-5.76242 H 123.0215 l -1.97185,5.76242 h -7.40883 l 10.52934,-28.50579 h 8.46176 z m -11.35254,-10.9888 -3.5034,-10.22303 -3.5034,10.22303 z m -30.51594,11.54399 q -3.177949,0 -5.877289,-0.93807 -2.680195,-0.93807 -4.613765,-2.79506 -1.93357,-1.857 -3.005648,-4.63291 -1.052934,-2.77592 -1.052934,-6.41333 0,-3.38853 1.014646,-6.1453 1.014645,-2.75678 2.948215,-4.72863 1.856992,-1.89529 4.594621,-2.92908 2.756772,-1.03378 6.011294,-1.03378 1.79956,0 3.23538,0.21058 1.45496,0.19144 2.6802,0.5169 1.28266,0.36374 2.31645,0.8232 1.05293,0.44032 1.83785,0.8232 v 6.91108 h -0.84235 q -0.53604,-0.45946 -1.35924,-1.09122 -0.80406,-0.63176 -1.83785,-1.24438 -1.05293,-0.61262 -2.27816,-1.03379 -1.22524,-0.42117 -2.62277,-0.42117 -1.55068,0 -2.948213,0.49775 -1.39753,0.4786 -2.584474,1.60811 -1.129511,1.09123 -1.837848,2.89079 -0.689194,1.79956 -0.689194,4.36489 0,2.68019 0.746626,4.47975 0.76577,1.79956 1.914426,2.83335 1.167799,1.05294 2.603618,1.5124 1.435819,0.44032 2.833349,0.44032 1.3401,0 2.64191,-0.40203 1.32095,-0.40203 2.43132,-1.09123 0.93807,-0.55518 1.74213,-1.18694 0.80405,-0.63176 1.32095,-1.09122 h 0.76577 v 6.81535 q -1.07208,0.47861 -2.04844,0.89978 -0.97635,0.42117 -2.04843,0.72748 -1.39753,0.40203 -2.62276,0.61262 -1.22524,0.21059 -3.36939,0.21059 z" />
    </g>
    <path
       id="path3793"
       transform="translate(-51.840535,-95.030695)"
       style="display:inline;fill:url(#linearGradient114);stroke-width:0.17718568;fill-opacity:1"
       d="m 73.575386,165.87496 c -1.258529,-0.68261 -2.077972,-2.06554 -2.080545,-3.51126 -5.33e-4,-0.30133 0.20083,-0.96357 0.447397,-1.47144 1.089547,-2.24359 3.800398,-2.81495 5.649582,-1.19066 1.912115,1.67947 1.563766,4.90865 -0.659438,6.11309 -0.975984,0.52874 -2.444633,0.55514 -3.356996,0.06 z m 2.496168,-2.45255 c 0.489435,-0.45448 0.417684,-1.39279 -0.140975,-1.84373 -0.581398,-0.46933 -0.945639,-0.46933 -1.527036,0 -0.53035,0.42806 -0.606328,1.12988 -0.188602,1.74186 0.333835,0.48909 1.37801,0.54634 1.856625,0.10189 z m -16.508691,1.07058 c -0.117506,-1.24441 -0.893184,-9.18764 -1.723727,-17.65165 -0.830542,-8.46409 -1.51007,-15.41776 -1.51007,-15.45264 0,-0.0362 -0.295534,-0.0631 -0.65677,-0.0631 h -0.656762 v -0.93899 -0.93898 l 11.447393,-0.0801 c 10.485568,-0.0732 11.474337,-0.10737 11.768137,-0.40889 0.302576,-0.31019 0.302134,-0.34841 -0.0073,-0.66615 -0.30362,-0.31178 -1.143041,-0.34156 -11.205196,-0.39748 -6.426437,-0.0362 -10.876972,-0.13316 -10.876972,-0.23735 0,-0.0973 0.358858,-0.55986 0.797493,-1.02827 0.597366,-0.63802 1.068278,-0.93222 1.87648,-1.17239 0.759784,-0.2257 1.07933,-0.41632 1.080202,-0.64394 0.0015,-0.45991 0.64948,-1.40872 1.160253,-1.69954 0.286603,-0.16334 1.23953,-0.24944 2.811613,-0.25345 2.279881,-0.007 2.401582,0.0128 2.946647,0.48409 0.312714,0.27035 0.670569,0.78043 0.795269,1.13431 l 0.226741,0.64335 6.687492,0.0701 c 7.493382,0.0785 7.026665,-0.007 8.553098,1.58659 1.133555,1.18431 1.399429,1.66465 1.399429,2.5282 0,0.91527 -0.430413,1.39875 -3.406896,3.8272 -0.996534,0.81301 -1.860009,1.60689 -1.918833,1.7642 -0.11672,0.31218 -1.707226,15.60639 -2.081515,20.01572 -0.207229,2.44112 -0.190131,2.40695 -1.205373,2.40695 -2.038842,0 -3.815015,1.04556 -4.852378,2.85635 -0.452868,0.79053 -0.514431,1.09512 -0.51245,2.53517 0.0022,1.65972 0.34357,2.73674 1.174575,3.70675 0.274252,0.31983 -0.01683,0.33711 -5.804004,0.33711 h -6.092837 z m 9.443416,-30.17012 c 0.870468,-0.65925 -1.129206,-1.15658 -3.80923,-0.94747 -1.715777,0.13353 -2.294818,0.46966 -1.647542,0.95536 0.514201,0.38582 4.945388,0.37938 5.456772,-0.007 z m 14.230556,-4.56775 c 0.335042,-0.49084 0.132359,-1.03231 -0.458365,-1.2247 -0.481996,-0.15695 -0.929429,0.20759 -0.929429,0.75815 0,0.88375 0.897141,1.1854 1.387794,0.46655 z m -17.243741,-4.78447 c 0.195922,-0.32506 -0.79761,-0.57731 -2.276534,-0.57731 -1.372063,0 -2.133388,0.2084 -2.133388,0.58444 0,0.25104 4.258525,0.2442 4.409922,-0.007 z m 158.173866,3.30582 h -7.08338 l -12.09916,-19.56542 v 19.56542 h -6.73878 V 99.77068 h 8.78721 l 10.39533,16.33005 V 99.77068 h 6.73878 z m -30.05648,0 h -7.60027 l -1.97186,-5.76242 h -10.56763 l -1.97185,5.76242 h -7.40883 l 10.52934,-28.50579 h 8.46176 z m -11.35254,-10.9888 -3.5034,-10.22303 -3.5034,10.22303 z m -21.17355,10.9888 H 140.96603 V 99.77068 h 20.61836 v 5.51355 h -13.30525 v 4.92007 h 12.34804 v 5.51354 h -12.34804 v 7.04509 h 13.30525 z m -25.02154,0 H 116.00193 V 99.77068 h 7.35139 v 22.99225 h 13.20953 z m -36.08691,0.55519 q -3.177949,0 -5.877289,-0.93807 -2.680196,-0.93807 -4.613765,-2.79506 -1.93357,-1.85699 -3.005648,-4.63291 -1.052934,-2.77592 -1.052934,-6.41333 0,-3.38853 1.014645,-6.1453 1.014646,-2.75677 2.948216,-4.72863 1.856992,-1.89528 4.59462,-2.92907 2.756773,-1.033793 6.011295,-1.033793 1.79956,0 3.23538,0.210587 1.45496,0.191442 2.68019,0.516894 1.28267,0.363742 2.31646,0.823202 1.05293,0.44032 1.83785,0.8232 v 6.91108 h -0.84235 q -0.53604,-0.45946 -1.35924,-1.09122 -0.80406,-0.63176 -1.83785,-1.24438 -1.05293,-0.61262 -2.27817,-1.03379 -1.22523,-0.42117 -2.62276,-0.42117 -1.55068,0 -2.948213,0.49775 -1.39753,0.4786 -2.584474,1.60812 -1.129511,1.09122 -1.837849,2.89078 -0.689193,1.79956 -0.689193,4.36489 0,2.68019 0.746626,4.47975 0.76577,1.79956 1.914426,2.83335 1.167799,1.05294 2.603618,1.5124 1.435819,0.44032 2.833349,0.44032 1.3401,0 2.64191,-0.40203 1.32095,-0.40203 2.43132,-1.09123 0.93807,-0.55518 1.74212,-1.18694 0.80406,-0.63176 1.32096,-1.09122 h 0.76577 v 6.81535 q -1.07208,0.47861 -2.04844,0.89978 -0.97635,0.42118 -2.04843,0.72748 -1.39753,0.40203 -2.62277,0.61262 -1.22523,0.21059 -3.36938,0.21059 z" />
  </g>
  <text
     xml:space="preserve"
     style="font-style:normal;font-weight:normal;font-size:10.58333302px;line-height:1.25;font-family:sans-serif;letter-spacing:0px;word-spacing:0px;fill:#000000;fill-opacity:1;stroke:none;stroke-width:0.26458332"
     x="43.841953"
     y="-74.120117"
     id="text3771"><tspan
       sodipodi:role="line"
       id="tspan3769"
       x="43.841953"
       y="-64.464622"
       style="stroke-width:0.26458332" /></text>
</svg>
